<?xml version="1.0" standalone="no"?>
<!DOCTYPE svg PUBLIC "-//W3C//DTD SVG 20010904//EN"
 "http://www.w3.org/TR/2001/REC-SVG-20010904/DTD/svg10.dtd">
<svg version="1.0" xmlns="http://www.w3.org/2000/svg"
 width="119.000000pt" height="86.000000pt" viewBox="0 0 119.000000 86.000000"
 preserveAspectRatio="xMidYMid meet">

<g transform="translate(0.000000,86.000000) scale(0.100000,-0.100000)"
fill="#000000" stroke="none">
<path d="M744 796 c-38 -45 -179 -310 -251 -467 -68 -148 -77 -212 -31 -217
36 -4 57 29 153 243 42 94 103 227 136 297 34 71 59 137 57 150 -5 35 -33 33
-64 -6z"/>
<path d="M901 627 c-14 -18 -6 -27 97 -111 45 -37 82 -72 82 -77 0 -4 -48 -45
-106 -90 -108 -84 -125 -102 -106 -121 21 -21 227 97 267 154 8 13 15 39 15
59 0 32 -7 44 -49 81 -68 62 -185 123 -200 105z"/>
<path d="M234 565 c-49 -24 -106 -58 -126 -75 -34 -28 -38 -37 -38 -76 0 -40
5 -50 44 -88 56 -54 172 -130 186 -121 21 13 8 33 -75 114 -47 46 -85 87 -85
92 0 5 52 43 115 85 77 52 115 83 115 96 0 30 -40 22 -136 -27z"/>
</g>
</svg>
